<svg xmlns="http://www.w3.org/2000/svg" xmlns:xlink="http://www.w3.org/1999/xlink" width="1000" zoomAndPan="magnify" viewBox="0 0 750 225" height="300" preserveAspectRatio="xMidYMid meet" version="1.0"><defs><g/><clipPath id="137a0eca56"><rect x="0" width="721" y="0" height="135"/></clipPath></defs><rect x="-75" width="900" fill="#ffffff" y="-22.5" height="270" fill-opacity="1"/><rect x="-75" width="900" fill="#ffffff" y="-22.5" height="270" fill-opacity="1"/><g transform="matrix(1, 0, 0, 1, 4, 45)"><g clip-path="url(#137a0eca56)"><g fill="#f8cbb0" fill-opacity="1"><g transform="translate(19.530761, 97.048416)"><g><path d="M 103.84375 14.96875 C 98.59375 16.601562 93.867188 16.894531 89.671875 15.84375 C 85.273438 14.664062 81.46875 12.832031 78.25 10.34375 C 75.164062 7.84375 72.015625 4.851562 68.796875 1.375 L 16.921875 -56.109375 L 16.921875 -6.890625 C 16.992188 -4.597656 18.015625 -2.890625 19.984375 -1.765625 C 20.898438 -1.242188 21.882812 -0.984375 22.9375 -0.984375 L 24.796875 -0.984375 L 24.796875 0 L 4.53125 0 L 4.53125 -0.984375 L 6.390625 -0.984375 C 8.035156 -0.984375 9.445312 -1.554688 10.625 -2.703125 C 11.8125 -3.859375 12.40625 -5.285156 12.40625 -6.984375 L 12.40625 -61.03125 C 12.070312 -61.488281 11.410156 -62.359375 10.421875 -63.640625 C 9.441406 -64.921875 8.625 -65.953125 7.96875 -66.734375 C 7.3125 -67.523438 6.425781 -68.5625 5.3125 -69.84375 C 4.195312 -71.125 3.160156 -72.15625 2.203125 -72.9375 C 1.253906 -73.726562 0.15625 -74.648438 -1.09375 -75.703125 C -3.0625 -77.210938 -5.160156 -78.296875 -7.390625 -78.953125 C -9.617188 -79.609375 -11.503906 -79.9375 -13.046875 -79.9375 C -14.585938 -79.9375 -16.242188 -79.671875 -18.015625 -79.140625 L -18.40625 -80.125 C -15.257812 -81.4375 -12.222656 -82.09375 -9.296875 -82.09375 C -6.378906 -82.09375 -3.867188 -81.75 -1.765625 -81.0625 C 0.328125 -80.375 2.585938 -79.144531 5.015625 -77.375 C 7.441406 -75.601562 9.425781 -73.960938 10.96875 -72.453125 C 12.507812 -70.941406 14.363281 -68.972656 16.53125 -66.546875 L 66.140625 -11.421875 L 66.140625 -61.921875 C 66.078125 -63.628906 65.453125 -65.054688 64.265625 -66.203125 C 63.085938 -67.347656 61.679688 -67.921875 60.046875 -67.921875 L 58.171875 -67.921875 L 58.171875 -68.90625 L 78.453125 -68.90625 L 78.453125 -67.921875 L 76.671875 -67.921875 C 75.035156 -67.921875 73.625 -67.347656 72.4375 -66.203125 C 71.257812 -65.054688 70.640625 -63.660156 70.578125 -62.015625 L 70.578125 -6.40625 C 71.234375 -5.675781 72.164062 -4.585938 73.375 -3.140625 C 74.59375 -1.703125 75.445312 -0.6875 75.9375 -0.09375 C 76.425781 0.488281 77.160156 1.335938 78.140625 2.453125 C 79.128906 3.578125 79.96875 4.445312 80.65625 5.0625 C 81.351562 5.6875 82.207031 6.472656 83.21875 7.421875 C 84.238281 8.378906 85.191406 9.132812 86.078125 9.6875 C 86.960938 10.25 87.960938 10.890625 89.078125 11.609375 C 90.648438 12.535156 92.4375 13.226562 94.4375 13.6875 C 96.445312 14.144531 98.085938 14.375 99.359375 14.375 C 100.640625 14.375 102.003906 14.242188 103.453125 13.984375 Z M 103.84375 14.96875 "/></g></g></g><g fill="#f8cbb0" fill-opacity="1"><g transform="translate(98.375591, 97.048416)"><g><path d="M 7.1875 -0.984375 C 8.894531 -0.984375 10.351562 -1.585938 11.5625 -2.796875 C 12.78125 -4.015625 13.421875 -5.476562 13.484375 -7.1875 L 13.484375 -62.3125 C 13.484375 -63.882812 12.859375 -65.210938 11.609375 -66.296875 C 10.367188 -67.378906 8.894531 -67.921875 7.1875 -67.921875 L 6 -67.921875 L 5.90625 -68.90625 L 34.75 -68.90625 C 36.78125 -68.90625 38.992188 -69.101562 41.390625 -69.5 C 43.785156 -69.894531 45.476562 -70.285156 46.46875 -70.671875 L 46.46875 -58.28125 L 45.484375 -58.28125 L 45.484375 -60.046875 C 45.484375 -61.617188 44.941406 -62.960938 43.859375 -64.078125 C 42.773438 -65.191406 41.476562 -65.785156 39.96875 -65.859375 L 19.890625 -65.859375 L 19.890625 -35.4375 L 36.515625 -35.4375 C 37.828125 -35.5 38.941406 -35.988281 39.859375 -36.90625 C 40.785156 -37.832031 41.25 -38.984375 41.25 -40.359375 L 41.25 -41.734375 L 42.234375 -41.734375 L 42.234375 -26.1875 L 41.25 -26.1875 L 41.25 -27.65625 C 41.25 -28.96875 40.804688 -30.082031 39.921875 -31 C 39.035156 -31.925781 37.9375 -32.421875 36.625 -32.484375 L 19.890625 -32.484375 L 19.890625 -3.046875 L 33.96875 -3.046875 C 38.820312 -3.046875 42.523438 -4.128906 45.078125 -6.296875 C 47.640625 -8.460938 49.773438 -11.679688 51.484375 -15.953125 L 52.46875 -15.953125 L 46.765625 0 L 5.90625 0 L 5.90625 -0.984375 Z M 7.1875 -0.984375 "/></g></g></g><g fill="#f8cbb0" fill-opacity="1"><g transform="translate(151.234076, 97.048416)"><g><path d="M 72.359375 -67.921875 L 70.78125 -67.921875 C 69.394531 -67.921875 68.191406 -67.476562 67.171875 -66.59375 C 66.160156 -65.707031 65.625 -64.609375 65.5625 -63.296875 L 65.5625 -24.3125 C 65.5625 -16.632812 63.128906 -10.429688 58.265625 -5.703125 C 53.410156 -0.984375 46.945312 1.375 38.875 1.375 C 30.8125 1.375 24.269531 -0.96875 19.25 -5.65625 C 14.226562 -10.351562 11.71875 -16.539062 11.71875 -24.21875 L 11.71875 -63 C 11.71875 -64.96875 10.863281 -66.410156 9.15625 -67.328125 C 8.363281 -67.722656 7.476562 -67.921875 6.5 -67.921875 L 4.921875 -67.921875 L 4.921875 -68.90625 L 24.90625 -68.90625 L 24.90625 -67.921875 L 23.328125 -67.921875 C 21.890625 -67.921875 20.675781 -67.476562 19.6875 -66.59375 C 18.707031 -65.707031 18.179688 -64.578125 18.109375 -63.203125 L 18.109375 -25.59375 C 18.109375 -18.4375 20.023438 -12.660156 23.859375 -8.265625 C 27.703125 -3.867188 32.835938 -1.671875 39.265625 -1.671875 C 45.703125 -1.671875 50.921875 -3.753906 54.921875 -7.921875 C 58.929688 -12.085938 60.9375 -17.550781 60.9375 -24.3125 L 60.9375 -63.203125 C 60.863281 -64.578125 60.332031 -65.707031 59.34375 -66.59375 C 58.363281 -67.476562 57.15625 -67.921875 55.71875 -67.921875 L 54.140625 -67.921875 L 54.140625 -68.90625 L 72.359375 -68.90625 Z M 72.359375 -67.921875 "/></g></g></g><g fill="#f8cbb0" fill-opacity="1"><g transform="translate(224.566635, 97.048416)"><g><path d="M 26.1875 -65.859375 L 19.890625 -65.859375 L 19.890625 -7.1875 C 19.890625 -5.476562 20.492188 -4.015625 21.703125 -2.796875 C 22.921875 -1.585938 24.414062 -0.984375 26.1875 -0.984375 L 27.359375 -0.984375 L 27.46875 0 L 5.90625 0 L 5.90625 -0.984375 L 7.1875 -0.984375 C 8.894531 -0.984375 10.351562 -1.570312 11.5625 -2.75 C 12.78125 -3.9375 13.421875 -5.382812 13.484375 -7.09375 L 13.484375 -61.71875 C 13.421875 -63.425781 12.78125 -64.882812 11.5625 -66.09375 C 10.351562 -67.3125 8.894531 -67.921875 7.1875 -67.921875 L 5.90625 -67.921875 L 5.90625 -68.90625 L 32.484375 -68.90625 C 38.453125 -68.90625 43.144531 -67.25 46.5625 -63.9375 C 49.976562 -60.625 51.6875 -56.320312 51.6875 -51.03125 C 51.6875 -45.75 50.0625 -41.1875 46.8125 -37.34375 C 43.5625 -33.507812 39.609375 -31.59375 34.953125 -31.59375 C 35.929688 -31.132812 37.09375 -30.234375 38.4375 -28.890625 C 39.78125 -27.546875 40.976562 -26.148438 42.03125 -24.703125 C 47.675781 -16.628906 51.351562 -11.65625 53.0625 -9.78125 C 54.769531 -7.914062 55.984375 -6.640625 56.703125 -5.953125 C 57.421875 -5.265625 58.207031 -4.59375 59.0625 -3.9375 C 59.914062 -3.28125 60.769531 -2.753906 61.625 -2.359375 C 63.53125 -1.441406 65.5625 -0.984375 67.71875 -0.984375 L 67.71875 0 L 62.3125 0 C 59.488281 0 56.863281 -0.503906 54.4375 -1.515625 C 52.007812 -2.535156 50.1875 -3.585938 48.96875 -4.671875 C 47.757812 -5.753906 46.710938 -6.804688 45.828125 -7.828125 C 44.941406 -8.847656 42.492188 -12.242188 38.484375 -18.015625 C 34.484375 -23.785156 32.15625 -27.082031 31.5 -27.90625 C 30.84375 -28.726562 30.15625 -29.53125 29.4375 -30.3125 C 27.332031 -32.550781 25.234375 -33.671875 23.140625 -33.671875 L 23.140625 -34.65625 C 23.660156 -34.582031 24.347656 -34.546875 25.203125 -34.546875 C 26.054688 -34.546875 27.101562 -34.582031 28.34375 -34.65625 C 36.488281 -34.851562 41.609375 -38.265625 43.703125 -44.890625 C 44.097656 -46.203125 44.296875 -47.429688 44.296875 -48.578125 C 44.296875 -49.722656 44.296875 -50.460938 44.296875 -50.796875 C 44.160156 -55.191406 43.007812 -58.734375 40.84375 -61.421875 C 38.6875 -64.117188 35.769531 -65.5625 32.09375 -65.75 C 30.519531 -65.820312 28.550781 -65.859375 26.1875 -65.859375 Z M 26.1875 -65.859375 "/></g></g></g><g fill="#f8cbb0" fill-opacity="1"><g transform="translate(287.268454, 97.048416)"><g><path d="M 14.46875 -60.390625 C 21.488281 -66.984375 30.59375 -70.28125 41.78125 -70.28125 C 52.976562 -70.28125 62.085938 -66.984375 69.109375 -60.390625 C 76.128906 -53.796875 79.640625 -45.148438 79.640625 -34.453125 C 79.640625 -23.753906 76.128906 -15.109375 69.109375 -8.515625 C 62.085938 -1.921875 52.976562 1.375 41.78125 1.375 C 30.59375 1.375 21.488281 -1.921875 14.46875 -8.515625 C 7.445312 -15.109375 3.9375 -23.753906 3.9375 -34.453125 C 3.9375 -45.148438 7.445312 -53.796875 14.46875 -60.390625 Z M 19.828125 -10.625 C 25.378906 -4.59375 32.679688 -1.578125 41.734375 -1.578125 C 50.796875 -1.578125 58.097656 -4.59375 63.640625 -10.625 C 69.179688 -16.664062 71.953125 -24.609375 71.953125 -34.453125 C 71.953125 -44.296875 69.179688 -52.234375 63.640625 -58.265625 C 58.097656 -64.304688 50.796875 -67.328125 41.734375 -67.328125 C 32.679688 -67.328125 25.378906 -64.304688 19.828125 -58.265625 C 14.285156 -52.234375 11.515625 -44.296875 11.515625 -34.453125 C 11.515625 -24.609375 14.285156 -16.664062 19.828125 -10.625 Z M 19.828125 -10.625 "/></g></g></g><g fill="#f8cbb0" fill-opacity="1"><g transform="translate(366.802309, 97.048416)"><g><path d="M 51.875 -49.90625 C 51.875 -47.019531 51.285156 -44.332031 50.109375 -41.84375 C 47.941406 -37.175781 44.132812 -33.925781 38.6875 -32.09375 C 36.78125 -31.4375 35.140625 -31.109375 33.765625 -31.109375 C 29.691406 -31.109375 26.179688 -31.863281 23.234375 -33.375 L 23.234375 -34.359375 C 28.023438 -33.304688 32.453125 -33.832031 36.515625 -35.9375 C 40.128906 -37.769531 42.59375 -40.785156 43.90625 -44.984375 C 44.300781 -46.296875 44.5 -47.539062 44.5 -48.71875 C 44.5 -49.90625 44.5 -50.628906 44.5 -50.890625 C 44.363281 -55.484375 43.144531 -59.140625 40.84375 -61.859375 C 38.550781 -64.585938 35.335938 -65.953125 31.203125 -65.953125 L 19.890625 -65.953125 L 19.890625 -7.1875 C 19.953125 -5.476562 20.585938 -4.015625 21.796875 -2.796875 C 23.015625 -1.585938 24.476562 -0.984375 26.1875 -0.984375 L 27.46875 -0.984375 L 27.46875 0 L 5.90625 0 L 5.90625 -0.984375 L 7.1875 -0.984375 C 8.894531 -0.984375 10.351562 -1.585938 11.5625 -2.796875 C 12.78125 -4.015625 13.421875 -5.476562 13.484375 -7.1875 L 13.484375 -62.21875 C 13.285156 -63.851562 12.59375 -65.210938 11.40625 -66.296875 C 10.226562 -67.378906 8.820312 -67.921875 7.1875 -67.921875 L 6 -67.921875 L 5.90625 -68.90625 L 31.59375 -68.90625 C 37.894531 -68.90625 42.847656 -67.210938 46.453125 -63.828125 C 50.066406 -60.453125 51.875 -55.8125 51.875 -49.90625 Z M 51.875 -49.90625 "/></g></g></g><g fill="#f8cbb0" fill-opacity="1"><g transform="translate(419.660805, 97.048416)"><g><path d="M 14.46875 -60.390625 C 21.488281 -66.984375 30.59375 -70.28125 41.78125 -70.28125 C 52.976562 -70.28125 62.085938 -66.984375 69.109375 -60.390625 C 76.128906 -53.796875 79.640625 -45.148438 79.640625 -34.453125 C 79.640625 -23.753906 76.128906 -15.109375 69.109375 -8.515625 C 62.085938 -1.921875 52.976562 1.375 41.78125 1.375 C 30.59375 1.375 21.488281 -1.921875 14.46875 -8.515625 C 7.445312 -15.109375 3.9375 -23.753906 3.9375 -34.453125 C 3.9375 -45.148438 7.445312 -53.796875 14.46875 -60.390625 Z M 19.828125 -10.625 C 25.378906 -4.59375 32.679688 -1.578125 41.734375 -1.578125 C 50.796875 -1.578125 58.097656 -4.59375 63.640625 -10.625 C 69.179688 -16.664062 71.953125 -24.609375 71.953125 -34.453125 C 71.953125 -44.296875 69.179688 -52.234375 63.640625 -58.265625 C 58.097656 -64.304688 50.796875 -67.328125 41.734375 -67.328125 C 32.679688 -67.328125 25.378906 -64.304688 19.828125 -58.265625 C 14.285156 -52.234375 11.515625 -44.296875 11.515625 -34.453125 C 11.515625 -24.609375 14.285156 -16.664062 19.828125 -10.625 Z M 19.828125 -10.625 "/></g></g></g><g fill="#f8cbb0" fill-opacity="1"><g transform="translate(499.19466, 97.048416)"><g><path d="M 72.359375 -67.921875 L 70.78125 -67.921875 C 69.394531 -67.921875 68.191406 -67.476562 67.171875 -66.59375 C 66.160156 -65.707031 65.625 -64.609375 65.5625 -63.296875 L 65.5625 -24.3125 C 65.5625 -16.632812 63.128906 -10.429688 58.265625 -5.703125 C 53.410156 -0.984375 46.945312 1.375 38.875 1.375 C 30.8125 1.375 24.269531 -0.96875 19.25 -5.65625 C 14.226562 -10.351562 11.71875 -16.539062 11.71875 -24.21875 L 11.71875 -63 C 11.71875 -64.96875 10.863281 -66.410156 9.15625 -67.328125 C 8.363281 -67.722656 7.476562 -67.921875 6.5 -67.921875 L 4.921875 -67.921875 L 4.921875 -68.90625 L 24.90625 -68.90625 L 24.90625 -67.921875 L 23.328125 -67.921875 C 21.890625 -67.921875 20.675781 -67.476562 19.6875 -66.59375 C 18.707031 -65.707031 18.179688 -64.578125 18.109375 -63.203125 L 18.109375 -25.59375 C 18.109375 -18.4375 20.023438 -12.660156 23.859375 -8.265625 C 27.703125 -3.867188 32.835938 -1.671875 39.265625 -1.671875 C 45.703125 -1.671875 50.921875 -3.753906 54.921875 -7.921875 C 58.929688 -12.085938 60.9375 -17.550781 60.9375 -24.3125 L 60.9375 -63.203125 C 60.863281 -64.578125 60.332031 -65.707031 59.34375 -66.59375 C 58.363281 -67.476562 57.15625 -67.921875 55.71875 -67.921875 L 54.140625 -67.921875 L 54.140625 -68.90625 L 72.359375 -68.90625 Z M 72.359375 -67.921875 "/></g></g></g><g fill="#f8cbb0" fill-opacity="1"><g transform="translate(572.527252, 97.048416)"><g><path d="M 41.046875 1.375 C 30.679688 1.3125 22.234375 -2 15.703125 -8.5625 C 9.171875 -15.125 5.90625 -23.769531 5.90625 -34.5 C 5.90625 -45.226562 9.171875 -53.875 15.703125 -60.4375 C 22.234375 -67 30.878906 -70.28125 41.640625 -70.28125 C 50.429688 -70.28125 58.207031 -68.050781 64.96875 -63.59375 L 66.9375 -49.71875 L 66.046875 -49.71875 C 64.609375 -55.351562 61.691406 -59.695312 57.296875 -62.75 C 52.898438 -65.800781 47.679688 -67.328125 41.640625 -67.328125 C 33.046875 -67.328125 26.171875 -64.34375 21.015625 -58.375 C 15.867188 -52.40625 13.296875 -44.5 13.296875 -34.65625 C 13.296875 -24.8125 15.835938 -16.882812 20.921875 -10.875 C 26.003906 -4.875 32.710938 -1.773438 41.046875 -1.578125 C 48.398438 -1.578125 54.535156 -3.578125 59.453125 -7.578125 C 64.773438 -11.910156 67.992188 -18.96875 69.109375 -28.75 L 69.890625 -28.75 L 68.703125 -13.296875 C 62.734375 -3.515625 53.515625 1.375 41.046875 1.375 Z M 41.046875 1.375 "/></g></g></g><g fill="#f8cbb0" fill-opacity="1"><g transform="translate(643.39898, 97.048416)"><g><path d="M 53.84375 -0.984375 C 55.550781 -0.984375 57.007812 -1.585938 58.21875 -2.796875 C 59.4375 -4.015625 60.078125 -5.445312 60.140625 -7.09375 L 60.140625 -32.578125 L 19.890625 -32.578125 L 19.890625 -7.09375 C 19.890625 -5.382812 20.507812 -3.9375 21.75 -2.75 C 23 -1.570312 24.476562 -0.984375 26.1875 -0.984375 L 27.46875 -0.984375 L 27.46875 0 L 5.90625 0 L 5.90625 -0.984375 L 7.1875 -0.984375 C 8.894531 -0.984375 10.351562 -1.570312 11.5625 -2.75 C 12.78125 -3.9375 13.421875 -5.382812 13.484375 -7.09375 L 13.484375 -61.8125 C 13.421875 -63.519531 12.78125 -64.960938 11.5625 -66.140625 C 10.351562 -67.328125 8.894531 -67.921875 7.1875 -67.921875 L 5.90625 -67.921875 L 5.90625 -68.90625 L 27.46875 -68.90625 L 27.46875 -67.921875 L 26.1875 -67.921875 C 24.476562 -67.921875 23.015625 -67.328125 21.796875 -66.140625 C 20.585938 -64.960938 19.953125 -63.519531 19.890625 -61.8125 L 19.890625 -35.53125 L 60.140625 -35.53125 L 60.140625 -61.8125 C 60.078125 -64.175781 59.03125 -65.953125 57 -67.140625 C 56.007812 -67.660156 54.957031 -67.921875 53.84375 -67.921875 L 52.5625 -67.921875 L 52.5625 -68.90625 L 74.125 -68.90625 L 74.125 -67.921875 L 72.84375 -67.921875 C 71.132812 -67.921875 69.671875 -67.3125 68.453125 -66.09375 C 67.242188 -64.882812 66.609375 -63.425781 66.546875 -61.71875 L 66.546875 -7.09375 C 66.609375 -5.382812 67.242188 -3.9375 68.453125 -2.75 C 69.671875 -1.570312 71.132812 -0.984375 72.84375 -0.984375 L 74.125 -0.984375 L 74.125 0 L 52.5625 0 L 52.5625 -0.984375 Z M 53.84375 -0.984375 "/></g></g></g></g></g></svg>